<svg id="visual" viewBox="0 0 1920 950" width="1920" height="950" xmlns="http://www.w3.org/2000/svg" xmlns:xlink="http://www.w3.org/1999/xlink" version="1.1"><rect x="0" y="0" width="1920" height="950" fill="#20212f"></rect><path d="M0 821L137 749L274 691L411 654L549 731L686 893L823 763L960 864L1097 710L1234 832L1371 894L1509 851L1646 616L1783 815L1920 791L1920 951L1783 951L1646 951L1509 951L1371 951L1234 951L1097 951L960 951L823 951L686 951L549 951L411 951L274 951L137 951L0 951Z" fill="#ffffff"></path><path d="M0 878L137 887L274 788L411 819L549 753L686 790L823 869L960 742L1097 807L1234 860L1371 816L1509 920L1646 854L1783 900L1920 886L1920 951L1783 951L1646 951L1509 951L1371 951L1234 951L1097 951L960 951L823 951L686 951L549 951L411 951L274 951L137 951L0 951Z" fill="#fbe5c6"></path><path d="M0 790L137 860L274 912L411 898L549 820L686 905L823 800L960 856L1097 807L1234 873L1371 850L1509 841L1646 859L1783 805L1920 814L1920 951L1783 951L1646 951L1509 951L1371 951L1234 951L1097 951L960 951L823 951L686 951L549 951L411 951L274 951L137 951L0 951Z" fill="#f2cc8f"></path></svg>