<svg id="visual" viewBox="0 0 960 540" width="960" height="540" xmlns="http://www.w3.org/2000/svg" xmlns:xlink="http://www.w3.org/1999/xlink" version="1.1"><rect x="0" y="0" width="960" height="540" fill="#3d405c"></rect><path d="M0 435L87 357L175 446L262 395L349 434L436 339L524 402L611 310L698 433L785 431L873 369L960 453L960 541L873 541L785 541L698 541L611 541L524 541L436 541L349 541L262 541L175 541L87 541L0 541Z" fill="#81b29a"></path><path d="M0 368L87 386L175 419L262 435L349 433L436 356L524 389L611 433L698 442L785 465L873 375L960 428L960 541L873 541L785 541L698 541L611 541L524 541L436 541L349 541L262 541L175 541L87 541L0 541Z" fill="#96a971"></path><path d="M0 417L87 462L175 435L262 481L349 408L436 466L524 444L611 420L698 446L785 485L873 434L960 500L960 541L873 541L785 541L698 541L611 541L524 541L436 541L349 541L262 541L175 541L87 541L0 541Z" fill="#bc9654"></path><path d="M0 468L87 473L175 487L262 485L349 489L436 485L524 506L611 470L698 500L785 512L873 501L960 456L960 541L873 541L785 541L698 541L611 541L524 541L436 541L349 541L262 541L175 541L87 541L0 541Z" fill="#e07a5f"></path></svg>