<svg id="visual" viewBox="0 0 1920 950" width="1920" height="950" xmlns="http://www.w3.org/2000/svg" xmlns:xlink="http://www.w3.org/1999/xlink" version="1.1"><rect x="0" y="0" width="1920" height="950" fill="#121315"></rect><path d="M0 50L192 29L384 126L576 45L768 48L960 22L1152 105L1344 64L1536 36L1728 151L1920 78L1920 0L1728 0L1536 0L1344 0L1152 0L960 0L768 0L576 0L384 0L192 0L0 0Z" fill="#f2cc8f"></path><path d="M0 100L192 55L384 29L576 79L768 53L960 66L1152 127L1344 39L1536 26L1728 57L1920 48L1920 0L1728 0L1536 0L1344 0L1152 0L960 0L768 0L576 0L384 0L192 0L0 0Z" fill="#fbe5c6"></path><path d="M0 35L192 31L384 71L576 10L768 38L960 71L1152 65L1344 29L1536 77L1728 18L1920 60L1920 0L1728 0L1536 0L1344 0L1152 0L960 0L768 0L576 0L384 0L192 0L0 0Z" fill="#ffffff"></path></svg>