<?xml version='1.0' encoding='utf-8'?>
<svg xmlns="http://www.w3.org/2000/svg" enable-background="new 0 0 1920 1260" version="1.1" viewBox="0 0 1920 1260">
<g fill="#F4F1DE">
	<path d="m1072 567.32c-26.155 13.588-59.72 20.382-93.286 20.382s-67.131-6.794-93.286-20.382l-779.1-404.52c-3.747 10.256-6.335 21.31-6.335 32.822v866.94c0 52.98 44.421 98.424 97.401 98.424h1562.6c52.98 0 95.956-45.445 95.956-98.424v-866.94c0-11.512-1.866-22.567-5.613-32.823l-778.38 404.52z"/>
	<path d="m901.05 537.26c42.096 21.876 113.23 21.873 155.34 0l777.1-403.4c-17.706-20.883-44.089-33.858-73.445-33.858h-1562.6c-29.356 0-55.739 12.975-73.445 33.857l777.1 403.41z"/>
</g>
</svg>
